<?xml version="1.0" encoding="UTF-8"?>
<svg id="Layer_1" data-name="Layer 1" xmlns="http://www.w3.org/2000/svg" viewBox="0 0 322.76 260">
  <defs>
    <style>
      .cls-1 {
        fill: #cc8080;
      }

      .cls-2 {
        fill: none;
      }

      .cls-3 {
        fill: #fdfafa;
      }

      .cls-4 {
        fill: #d9aaaa;
      }

      .cls-5 {
        fill: #4c4747;
      }

      .cls-6 {
        fill: #b9975b;
      }
    </style>
  </defs>
  <g id="Generative_Object" data-name="Generative Object">
    <path class="cls-2" d="M49.03,0l-.11.77c-1.74,1.3-2.61,3.31-2.65,5.46l.03,158.71c-.38.59-.67.9-1.28.41-17.72-16.66-42.93-2.46-43.82,20.41l-.62,1.12c-.01.74-.18,1.31-.5,1.7L0,0h49.03Z"/>
    <path class="cls-2" d="M226.66,0h96.1v191.92l-.68-.37c-.54-1.8-1.82-3.18-3.47-4.05-10.26-4.71-20.49-9.51-30.68-14.39-.12-32.97-.27-65.98-.44-99.05-1.75-19.88-7.42-38.52-21.5-53.14-10.15-10.54-23.4-17.35-37.76-20.07L226.66,0Z"/>
    <path class="cls-2" d="M.52,202.28l.68,1.43c1.46,15.64,9.37,29.54,21.73,39.17,18.87,14.7,51.66,19.99,74.83,13.59s39.05-25.33,45.65-48.44l.55-.26h40.49s.24.25.71.75v45.99c.3,2.19,1.34,3.71,3.28,4.79l.11.69H.01S0,200.88,0,200.88c.4.16.57.62.52,1.4Z"/>
    <g>
      <path class="cls-5" d="M226.66,0c29.68,5.09,50.97,25.54,58.24,54.93,2,8.09,3.33,16.23,3.34,24.68l.09,93.19,30.02,13.93c2.34,1.09,3.86,2.79,4.42,5.18v63.32c-.1,2.37-1.12,4.41-3.64,4.76h-130.56c-2.19-1.06-3.97-3.15-3.97-5.92l.02-45.74h-40.84c-2.02,7.18-4.74,13.72-8.48,19.95-3.26,5.42-7.05,10.1-11.66,14.43-5.99,5.66-12.91,9.79-20.65,12.68s-15.08,3.85-22.93,4.23l-6.3-.02c-21.18-.69-43.4-6.84-58.2-22.7-8.93-9.57-14.12-21.72-15.03-34.62L0,198.64v-7.56l.57-4.2c.12-3.86.96-7.66,2.3-11.4,1.83-4.58,4.45-8.56,8.12-11.69,10.34-8.82,24.98-8.27,34.74,1.51l-.03-158.78c0-2.87,1.13-5.07,3.33-6.52h177.63Z"/>
      <path class="cls-3" d="M322.76,255.24v4.76h-3.64c1.81-1.13,3.17-2.67,3.64-4.76Z"/>
      <path class="cls-1" d="M0,191.08l.07-2.5.5-1.7c-.04,1.42-.01,2.88-.57,4.2Z"/>
      <path class="cls-4" d="M.52,202.28c-.03-.4-.33-1.01-.52-1.4v-2.24c.51,1.12.63,2.41.52,3.64Z"/>
      <g>
        <path class="cls-6" d="M282.73,217.83c2.74,0,4.54-2.43,4.54-4.9v-28.22c0-.36.08-.64.21-.76.25-.25.65-.3,1.11-.16l24.54,11.48-.05,55.5-118.59-.03-.07-198.8h14.04c6.73,0,13.75,2.15,18.42,6.93,1.79,1.83,2.56,3.83,2.56,6.48l-.05,147.52c0,2.84,2.11,4.99,4.9,4.99l48.44-.03Z"/>
        <path class="cls-6" d="M281.68,219.76c4.33,0,7.46-2.53,7.46-6.87l.05-26.73,13.4,6.31,8.68,4.06v52.37s-114.86-.04-114.86-.04l-.04-195.04,13.95.09c5.64.04,10.8,2.34,15.01,5.94.81,1.29,2.16,2.39,2.16,4.12v149.45c.29,3.35,2.41,5.57,5.7,6.27l48.49.07Z"/>
      </g>
      <g>
        <path class="cls-6" d="M10.31,203.62c-.76-6.28-.71-12.14-.02-18.21.45-3.93,1.62-7.55,3.79-10.77,4.26-6.34,12.12-9.07,19.26-6.23,6.64,2.64,10.93,10.07,11.07,17.38.1,5.37.75,10.53,2.83,15.44,3.08,7.25,8.7,12.35,16.19,14.75,8.11,2.6,17.02,1.67,24.19-3.14,9.44-6.33,14.97-16.72,15.67-28.1V51.96s34.01-.03,34.01-.03v130.42c.09,18.02-4.89,36.79-17.15,50.11-3.9,4.24-8.08,7.67-13.15,10.43-7.43,4.04-15.49,6.35-24.01,6.85-17.91,1.07-38.63-2.59-53.35-13.21-10.81-7.8-17.71-19.51-19.33-32.91Z"/>
        <path class="cls-6" d="M24.81,229.9c-12.01-12.34-14.46-27.83-12.61-44.54.75-6.76,4.6-13.61,11.09-15.51,3.3-.97,6.89-.97,9.99.57,5.81,2.89,9.07,9,9.25,15.6.13,4.79.52,9.39,2.16,13.89,1.63,4.47,4.02,8.63,7.48,11.71,11.54,10.27,28.5,10.21,40.03.19,8.91-7.74,13.03-18.81,13.02-30.59l-.06-119.84c.1-2.69-.23-4.99.17-7.55h30.04s-.06,132.71-.06,132.71c0,7.63-1.7,15.06-3.87,22.18-2.96,9.73-8.78,19.36-16.28,26.02-2.96,2.63-5.89,4.86-9.36,6.67-6.99,3.65-14.26,5.85-22.18,6.41-9.87.7-19.59-.17-29.22-2.42-10.94-2.55-21.81-7.49-29.61-15.51Z"/>
      </g>
      <g>
        <path class="cls-6" d="M190.08,43.2c-2.64,0-4.44,2.24-4.44,4.78v150.5s-39.58.07-39.58.07c-.68,0-1.04-.4-1.03-1.03l1-10.16V48.26c0-2.9-1.93-5.1-4.86-5.1l-42.49.07c-2.89,0-4.15,2.75-4.16,5.29l-.09,135.49c0,11.06-8.28,22.95-19.91,24.39-4.52.56-8.87-.7-12.73-2.88-3.3-2.16-5.58-5.25-6.32-9.2l.02-187.64,159.62.06c8.55,0,16.8,2.06,24.59,5.02,13.36,5.62,23.54,15.14,30.03,28.01,2.8,5.54,4.79,11.07,6.16,17.13,1.64,7.27,2.58,14.54,2.58,22.11v127.99s-39.18.07-39.18.07c-.66,0-1.06-.36-1.07-1.03l-.03-143.84c0-3.57-1.55-6.76-3.52-9.51-5.57-7.77-16.48-11.52-25.96-11.52h-18.65Z"/>
        <path class="cls-6" d="M190.05,41.31c-3.08,0-6.26,2.47-6.26,5.83l-.04,149.52h-36.68s.86-10.7.86-10.7V47.68c-.01-3.87-3.37-6.44-7.04-6.43l-42.21.08c-2.99,0-6.01,2.59-6.01,5.81l-.08,136.01c0,4.02-1,7.83-2.64,11.3-2.17,4.6-5.68,8.08-10.07,10.4-5.55,2.94-13.07,2.14-18.1-1.64-1.75-1.77-4.34-3.96-4.34-6.88V10.63s155.16-.04,155.16-.04c9.99,0,19.78,1.91,28.78,5.99,6.36,3.09,12.8,7.38,17.33,12.71,12.94,13.53,17.73,33.47,17.88,52l-.05,125.86-36.46-.02.03-142.91c-.47-8.33-5.98-14.7-13.04-18.42-2.41-1.27-4.72-2.35-7.37-3-3.35-.82-6.64-1.51-10.13-1.51h-19.52Z"/>
      </g>
    </g>
  </g>
</svg>
