<?xml version="1.0" encoding="UTF-8"?>
<svg id="Layer_1" data-name="Layer 1" xmlns="http://www.w3.org/2000/svg" viewBox="0 0 322.76 260">
  <defs>
    <style>
      .cls-1 { fill: #cc8080; }
      .cls-2 { fill: #fdfafa; }
      .cls-3 { fill: #d9aaaa; }
      .cls-4 { fill: #fffeff; }
      .cls-5 { fill: #fffefe; }
      .cls-6 { fill: #fefefe; }
      .cls-7 { fill: #4c4747; }
      .cls-8 { fill: #b9975b; }
    </style>
  </defs>
  <g id="Generative_Object" data-name="Generative Object">
    <path class="cls-6" d="M49.03,0l-.11.77c-1.74,1.3-2.61,3.31-2.65,5.46l.03,158.71c-.38.59-.67.9-1.28.41-17.72-16.66-42.93-2.46-43.82,20.41l-.62,1.12c-.01.74-.18,1.31-.5,1.7L0,0h49.03Z"/>
    <path class="cls-4" d="M226.66,0h96.1v191.92l-.68-.37c-.54-1.8-1.82-3.18-3.47-4.05-10.26-4.71-20.49-9.51-30.68-14.39-.12-32.97-.27-65.98-.44-99.05-1.75-19.88-7.42-38.52-21.5-53.14-10.15-10.54-23.4-17.35-37.76-20.07L226.66,0Z"/>
  </g>
  <text x="161.38" y="112" text-anchor="middle" font-family="Georgia, serif" font-size="88" font-weight="700" fill="#b9975b">MJL</text>
  <text x="161.38" y="205" text-anchor="middle" font-family="Arial, sans-serif" font-size="27" font-weight="700" letter-spacing="7" fill="#fefefe">RENOVATIONS</text>
</svg>